<?xml version="1.0" standalone="no"?>
<!DOCTYPE svg PUBLIC "-//W3C//DTD SVG 20010904//EN"
 "http://www.w3.org/TR/2001/REC-SVG-20010904/DTD/svg10.dtd">
<svg version="1.0" xmlns="http://www.w3.org/2000/svg"
 width="732.000000pt" height="743.000000pt" viewBox="0 0 732.000000 743.000000"
 preserveAspectRatio="xMidYMid meet">

<g transform="translate(0.000000,743.000000) scale(0.100000,-0.100000)"
fill="#000000" stroke="none">
<path d="M3232 6785 c-123 -57 -273 -269 -377 -530 -53 -133 -89 -294 -100
-450 -7 -85 -11 -97 -67 -205 -33 -63 -95 -169 -138 -235 -42 -66 -123 -192
-179 -279 -128 -198 -416 -630 -589 -881 -430 -624 -545 -816 -658 -1097 -89
-223 -127 -395 -127 -583 0 -189 48 -312 139 -356 96 -46 185 13 266 176 37
73 80 215 133 435 111 458 175 614 430 1050 189 321 243 461 354 904 70 279
89 322 228 531 55 83 118 183 139 222 21 40 42 73 45 73 3 0 9 -38 13 -85 3
-47 16 -143 28 -213 32 -185 32 -479 1 -605 -62 -242 -191 -451 -477 -770
-287 -322 -418 -569 -487 -917 -33 -166 -33 -455 -1 -618 40 -199 108 -376
211 -545 62 -102 169 -237 188 -237 33 0 21 33 -39 108 -365 462 -441 1089
-197 1636 86 195 171 319 372 549 301 344 410 519 473 763 19 76 26 134 31
254 5 147 0 216 -33 415 l-7 40 34 -50 c118 -172 325 -158 576 39 80 63 181
179 239 274 145 237 160 504 47 792 -84 213 -275 420 -389 420 -16 0 -53 -11
-82 -25z m116 -48 c5 -24 -11 -41 -98 -106 -106 -78 -200 -177 -267 -280 -32
-49 -64 -97 -70 -107 -20 -31 25 75 69 161 77 152 191 294 267 335 44 24 94
22 99 -3z m183 -147 c154 -205 227 -471 188 -686 -23 -128 -70 -233 -156 -350
-126 -169 -300 -300 -438 -329 -160 -33 -257 42 -307 238 -18 70 -20 101 -15
217 10 226 81 432 225 647 57 88 198 229 295 298 31 22 61 52 68 67 l11 27 40
-32 c22 -18 62 -61 89 -97z m-1271 -1896 c-87 -352 -160 -530 -357 -869 -149
-257 -162 -281 -226 -425 -72 -165 -112 -292 -192 -611 -37 -145 -83 -308
-104 -361 -79 -200 -175 -272 -254 -190 -109 114 -112 392 -7 709 104 317 241
559 656 1158 87 127 240 351 338 498 99 146 181 265 183 263 2 -2 -15 -80 -37
-172z"/>
<path d="M5069 6347 c-92 -41 -146 -73 -413 -249 -208 -137 -367 -225 -521
-289 -135 -55 -167 -112 -106 -182 34 -38 56 -46 241 -88 184 -41 208 -54 315
-162 181 -184 255 -334 335 -680 66 -281 122 -430 237 -625 97 -167 263 -393
400 -548 35 -39 63 -73 63 -76 0 -2 -16 -2 -35 0 -47 6 -78 -3 -113 -33 l-29
-24 -12 38 c-18 62 -87 146 -283 348 -218 224 -281 301 -439 536 -66 97 -141
201 -166 230 -106 119 -248 206 -408 248 -103 27 -292 29 -410 5 -244 -51
-487 -168 -685 -330 -173 -141 -317 -309 -374 -436 -53 -119 -45 -242 21 -320
23 -27 24 -38 26 -147 2 -122 17 -178 47 -178 18 0 18 31 1 129 -14 82 -7 131
17 121 10 -4 48 -13 86 -21 86 -18 130 -14 354 37 312 71 475 84 672 54 215
-33 399 -99 732 -266 359 -180 505 -232 658 -233 l86 -1 39 -43 c21 -24 51
-50 67 -58 15 -8 28 -18 28 -23 0 -5 -24 -19 -52 -32 -40 -17 -78 -24 -149
-27 -169 -7 -296 36 -589 203 -157 89 -386 201 -482 236 -30 10 -41 10 -50 1
-19 -19 4 -34 135 -91 136 -59 206 -95 167 -86 -56 12 -209 16 -265 7 -59 -10
-62 -10 -160 35 -274 125 -362 147 -575 147 -175 1 -227 -10 -365 -74 -273
-126 -520 -441 -656 -838 -41 -122 -69 -268 -75 -405 -21 -422 153 -772 492
-993 169 -111 310 -162 734 -269 284 -71 432 -120 570 -190 59 -30 217 -132
226 -146 3 -5 14 -9 25 -9 31 0 23 35 -15 67 -39 32 -251 165 -353 222 -429
238 -632 381 -787 554 -175 195 -256 342 -324 585 -24 90 -26 111 -26 287 1
179 3 197 32 308 87 330 296 596 541 688 130 48 296 61 446 35 129 -23 129
-23 14 -78 -89 -43 -114 -62 -194 -141 -108 -108 -177 -215 -237 -367 -62
-160 -88 -302 -88 -492 0 -284 57 -479 207 -705 52 -79 83 -110 97 -96 13 13
5 36 -33 86 -96 128 -184 342 -212 512 -28 174 -10 432 42 588 38 116 134 299
196 372 54 64 167 165 184 165 4 0 -8 -24 -28 -52 -61 -91 -103 -200 -135
-353 -28 -134 -30 -377 -3 -515 46 -243 162 -477 323 -653 178 -193 342 -298
607 -386 209 -70 402 -101 640 -103 229 -1 393 27 358 62 -8 9 -32 10 -95 2
-223 -29 -429 -22 -653 23 -232 47 -486 152 -638 267 -426 318 -613 878 -467
1398 45 160 159 324 261 376 56 28 52 29 259 -65 252 -116 487 -188 670 -206
72 -7 235 13 363 45 98 24 285 120 343 176 83 81 70 147 -60 306 -44 56 -125
155 -179 222 -123 152 -250 338 -288 422 -65 144 -72 251 -24 380 61 165 41
274 -90 504 -78 137 -95 192 -95 312 0 119 17 192 95 408 105 290 155 479 155
583 0 95 -44 109 -171 54z m101 -27 c0 -5 -4 -10 -9 -10 -27 0 -240 -168 -336
-265 -211 -212 -261 -364 -173 -535 l34 -65 -74 38 c-41 20 -80 37 -87 37 -7
0 -54 31 -106 70 -51 38 -135 89 -186 112 -51 24 -93 45 -92 48 0 3 75 42 167
87 119 58 238 128 412 243 236 155 324 208 400 236 44 16 50 16 50 4z m10
-104 c0 -55 -43 -208 -124 -436 -99 -281 -117 -353 -119 -468 l-2 -94 -50 54
c-70 75 -157 193 -191 258 -24 47 -28 67 -29 135 0 77 2 83 45 159 69 122 252
304 394 395 64 40 76 40 76 -3z m-1029 -531 c50 -18 212 -105 206 -111 -2 -2
-57 8 -123 22 -124 28 -174 52 -174 85 0 24 30 25 91 4z m545 -311 c87 -61
193 -179 285 -317 95 -142 142 -232 163 -314 22 -86 20 -123 -14 -231 -17 -52
-33 -115 -37 -139 -6 -44 -6 -45 -19 -22 -22 38 -72 205 -99 329 -71 329 -159
522 -318 696 -56 63 -53 63 39 -2z m-686 -614 c285 -35 442 -148 656 -470 164
-248 213 -307 481 -583 193 -198 235 -256 240 -330 3 -39 -1 -60 -16 -84 -30
-47 -86 -53 -215 -21 -137 34 -198 60 -506 210 -370 181 -529 239 -758 273
-194 29 -397 14 -647 -49 -180 -45 -284 -59 -355 -47 -67 11 -110 30 -110 48
0 25 48 108 104 180 119 153 301 261 510 304 94 19 118 31 99 50 -34 34 -277
-35 -416 -117 -116 -69 -249 -204 -302 -306 -22 -43 -44 -76 -49 -75 -5 2 -18
19 -28 38 -16 27 -19 49 -15 109 6 122 60 212 231 389 264 271 578 440 891
480 99 12 110 12 205 1z m-370 -1344 c47 -8 112 -22 145 -32 l60 -18 -109 -8
c-60 -4 -143 -17 -185 -28 -321 -88 -566 -390 -657 -810 -14 -66 -18 -126 -18
-265 1 -168 3 -188 31 -295 58 -219 137 -368 291 -550 148 -176 315 -311 569
-461 65 -38 114 -69 108 -69 -5 0 -32 7 -58 15 -27 8 -133 35 -235 59 -453
107 -696 223 -883 423 -77 82 -114 134 -158 220 -168 334 -145 761 64 1178
150 299 366 523 586 606 127 49 289 61 449 35z m1968 -21 c20 -9 54 -32 75
-53 39 -38 50 -70 20 -57 -45 19 -122 17 -193 -5 -39 -12 -74 -20 -76 -17 -10
10 36 85 71 115 41 36 51 38 103 17z m-1165 -156 c82 -13 172 -45 337 -119
177 -80 273 -120 292 -120 9 0 20 -4 23 -10 17 -28 -280 25 -429 77 -141 49
-416 167 -416 178 0 9 121 5 193 -6z m1232 -1 c41 -18 29 -49 -35 -87 -49 -29
-108 -27 -156 5 -60 41 -59 46 14 70 76 25 139 29 177 12z"/>
<path d="M4055 4505 c-40 -10 -137 -16 -295 -18 -253 -4 -288 -10 -450 -72
-71 -27 -92 -47 -72 -67 8 -8 30 -3 75 15 90 36 206 64 316 77 171 19 327 -15
486 -107 44 -26 150 -83 236 -127 173 -90 245 -141 321 -228 28 -32 58 -58 65
-58 34 0 21 33 -39 102 -43 50 -85 116 -132 206 -77 149 -130 214 -208 257
-47 26 -64 30 -148 32 -57 1 -119 -4 -155 -12z m245 -51 c41 -12 66 -29 109
-72 51 -52 140 -196 128 -208 -8 -8 -487 243 -514 269 -8 8 96 25 163 26 33 0
84 -6 114 -15z"/>
<path d="M4167 1176 c-8 -19 1 -25 118 -83 457 -228 1062 -367 1438 -333 207
19 393 67 533 138 71 36 93 57 76 74 -9 9 -36 0 -109 -35 -308 -146 -689 -170
-1131 -71 -286 64 -576 165 -814 285 -84 42 -103 47 -111 25z"/>
</g>
</svg>
