<?xml version="1.0" encoding="UTF-8"?>
<svg xmlns="http://www.w3.org/2000/svg" xmlns:xlink="http://www.w3.org/1999/xlink" viewBox="0 0 582.97 558.14">
  <defs>
    <style>
      .cls-1 {
        fill: url(#_名称未設定グラデーション_110);
      }

      .cls-1, .cls-2, .cls-3, .cls-4, .cls-5, .cls-6, .cls-7, .cls-8, .cls-9, .cls-10, .cls-11, .cls-12, .cls-13, .cls-14, .cls-15 {
        stroke-width: 0px;
      }

      .cls-2 {
        fill: #ffed9f;
      }

      .cls-3, .cls-13 {
        fill: #f7d283;
      }

      .cls-3, .cls-14, .cls-15 {
        mix-blend-mode: multiply;
      }

      .cls-4 {
        mix-blend-mode: color;
      }

      .cls-4, .cls-9, .cls-14 {
        fill: #ffd98d;
      }

      .cls-5 {
        fill: #fff1f2;
      }

      .cls-16 {
        isolation: isolate;
      }

      .cls-6 {
        fill: url(#_名称未設定グラデーション_73);
      }

      .cls-7 {
        fill: #8d6c30;
        mix-blend-mode: hard-light;
      }

      .cls-8 {
        fill: url(#_名称未設定グラデーション_114);
      }

      .cls-9 {
        mix-blend-mode: darken;
      }

      .cls-17 {
        fill: none;
        stroke: #000;
        stroke-linecap: round;
        stroke-linejoin: round;
        stroke-width: 2px;
      }

      .cls-10 {
        fill: #bf8564;
      }

      .cls-11 {
        fill: #fff;
      }

      .cls-12 {
        fill: #ff9024;
      }

      .cls-13 {
        mix-blend-mode: color-burn;
      }

      .cls-15 {
        fill: #289caf;
      }
    </style>
    <radialGradient id="_名称未設定グラデーション_73" data-name="名称未設定グラデーション 73" cx="180.12" cy="268.01" fx="171.14" fy="252.82" r="33.84" gradientTransform="translate(.6 198.26) rotate(.5) scale(1 .25)" gradientUnits="userSpaceOnUse">
      <stop offset=".18" stop-color="#9d9d9d"/>
      <stop offset=".32" stop-color="#6e6e6e"/>
      <stop offset=".51" stop-color="#323232"/>
      <stop offset=".66" stop-color="#0e0e0e"/>
      <stop offset=".73" stop-color="#000"/>
    </radialGradient>
    <radialGradient id="_名称未設定グラデーション_110" data-name="名称未設定グラデーション 110" cx="145.18" cy="179.86" fx="145.18" fy="179.86" r="4.61" gradientUnits="userSpaceOnUse">
      <stop offset=".36" stop-color="#fff"/>
      <stop offset=".38" stop-color="#ecf7ef"/>
      <stop offset=".41" stop-color="#ccebd5"/>
      <stop offset=".45" stop-color="#b1e0bf"/>
      <stop offset=".49" stop-color="#9bd7ad"/>
      <stop offset=".54" stop-color="#8ad19f"/>
      <stop offset=".6" stop-color="#7ecc96"/>
      <stop offset=".69" stop-color="#77c990"/>
      <stop offset=".93" stop-color="#76c98f"/>
    </radialGradient>
    <radialGradient id="_名称未設定グラデーション_114" data-name="名称未設定グラデーション 114" cx="220.53" cy="180.11" fx="220.53" fy="180.11" r="3.77" gradientUnits="userSpaceOnUse">
      <stop offset=".47" stop-color="#fff"/>
      <stop offset=".49" stop-color="#ecf7ef"/>
      <stop offset=".52" stop-color="#ccebd5"/>
      <stop offset=".56" stop-color="#b1e0bf"/>
      <stop offset=".6" stop-color="#9bd7ad"/>
      <stop offset=".64" stop-color="#8ad19f"/>
      <stop offset=".7" stop-color="#7ecc96"/>
      <stop offset=".78" stop-color="#77c990"/>
      <stop offset="1" stop-color="#76c98f"/>
    </radialGradient>
  </defs>
  <g class="cls-16">
    <g id="_レイヤー_2" data-name="レイヤー 2">
      <g id="_レイヤー_1-2" data-name="レイヤー 1">
        <path class="cls-12" d="M100.03,2.4C99.56,1.76,98.3,0,96.62,0c-2.07,0-3.61,2.7-4.16,3.66-3.77,6.56-8.55,12.54-11.87,19.34-6.53,13.35-6.68,12.04-11.33,22.28-2.85,6.27-5.06,11.75-6.05,14.38-12.9,34.05-6.52,64.31-6.52,64.31,1.59,7.56,5.01,19.29,13.18,32.39l70.52-68.5C150.35,49.24,107.59,12.76,100.03,2.4Z"/>
        <path class="cls-12" d="M504.97,356.43c-4.37,2.12-9.17,4.42-14.49,6.92-44.87,21.09-74.34-5.41-74.34-5.41-82.99-95.97-96.24-80.93-96.24-80.93-130.93,42.46-223.51,99.48-217.68,143.49,4.98,37.56,83.18,38.77,150.06,48.7,27.31,4.05,50.65,25.9,69.6,26.72,14.45.63,143.51,5.76,210.23-56.61"/>
        <path class="cls-12" d="M273.81,10.72c-1.77-3.03-4.9-3.95-6.05-2.52-12.8,15.82-25.73,36.15-31.83,47.96-2.15,2.89-4.78,9.15-7.05,15.2-3.76,9.19-5.03,14.63-5.03,14.63l69.29,43.27c20.64-54.32-11.43-104.99-19.34-118.55Z"/>
        <path class="cls-3" d="M236.69,88.25s43,15.84,49.43,22.28c8.16,8.16,7.12,19.41,7.12,19.41l-56.55-41.69Z"/>
        <path class="cls-3" d="M69.86,156.36s-1.02-19.49,9.16-30.67c8.25-9.05,41.04-30.67,41.04-30.67"/>
        <g>
          <path class="cls-11" d="M231.98,92.24s-12.05,10.52,18.61-40.06c1.47-2.42,10.9-5.8,14.13-4.37,2.98,1.32,1.46,6.75-1.64,22.38-4.21,21.21-4.34,25.92-9.45,28.04-2.01.83-10.34-.57-21.65-5.99Z"/>
          <path class="cls-11" d="M124.17,99.59c.69.63,3.08-1.51,3.89-1.68,3.6-.75,4.09-18-3.91-31.63-2.47-4.2-7.82-11.6-19.14-18.05-.13-.31-.5-.5-.87-.45,0,0,0,0,0,0-2.91.21-3.99,9.58-4.07,14.92-.04,2.25.08,5.39.75,9.17,1.48,9.56,4.07,23.28,5.55,32.85l17.8-5.12Z"/>
        </g>
        <path class="cls-12" d="M69.33,217.93c17.2,52.46,66.76,87.91,121.89,87.23,55.34-.68,104.14-37.62,119.87-90.75,2.1-14.33,2.94-35.03-4.09-57.96-1.4-4.58-3.08-10.04-6.34-16.45,0,0,0,0,0,0,0,0-26.98-53.96-96.68-57.82-4.71-.26-10.11-.36-10.11-.36s-9.26-.16-17.56.23c-36.47,1.71-58.87,14.03-58.87,14.03-25.23,13.88-37.63,37.67-43.04,50.85-.91,2.22-1.91,4.39-2.97,6.55-4.08,8.34-9.4,22.69-8.21,40.55.35,5.25,1.35,13.08,4.87,22.28"/>
        <path class="cls-4" d="M177.69,353.67c-22.21-38.55-32.04-45.85-36.77-44.19-12.23,4.29-2.74,72.62,8.75,73.62,5.1.44,8.29-12.58,13.61-11.83,9.26,1.29,7.1,41.64,12.8,42.14,4.46.39,14.55-23.58,7.84-46.23-1.67-5.63-4.07-10.15-6.23-13.51Z"/>
        <path class="cls-4" d="M223.61,373.36s-9.91-7.06-7.06-7.02c0,0-19.42-.51-18.27-16.95,0-.03-.04-.07-.03-.13.07-.91,7.91,1.61,12.28-1.42,2.57-1.78,1.48-3.75,5-6.26,3.24-2.31,5.54-1.62,5.66-1.55,0,0,.01,0,.01,0,0-.02-4.78-2.74-5.79-3.72-.28-.27.72-.41,1.43-.44,2.13-.07,1.74-.02,3-.19,2.37-.32,3.3-.41,4.51.18,2.36,1.14,7.31,2.05,11.57,10.18.05.1-.86-3.02-.86-3.02,1.51.9,4.83,3,8.07,6.47,9.74,10.43,12.42,26.37,11.54,41.73,0,0-30.19-8.27-31.07-17.88Z"/>
        <path class="cls-7" d="M339.16,476.12c-9.29-9.78-19.85-11.74-22.04-38.63-1.46-17.88-5.86-35.54-9.99-36.15-2.63-.39-4.85,8.29-13.21,34-3.82,4.93-9.22,13.83-8.52,24.77,1.66,26.03,36.1,37.01,45.26,36.11,1.97-.19,6.04.05,9.18-.16,6.54-.44,14.76-10.67-.68-19.95Z"/>
        <path class="cls-7" d="M325.9,480.47c-5.76-6.06-12.31-7.28-13.67-23.96-.9-11.09-3.63-22.04-6.2-22.42-1.63-.24-3.01,5.14-8.19,21.08-2.37,3.06-5.72,8.57-5.28,15.36,1.03,16.14,22.39,22.95,28.07,22.4,1.22-.12,3.56-1.15,5.21-.34,6.18,3.03,9.64-6.37.06-12.13Z"/>
        <path class="cls-12" d="M315.74,489.18s-57.01-19.45,7.04-116.24l-54.39-39.05-214.31,22.12-11.09,17.72,3.06,7.26c-3.76,5.21-17.03,25.34-5.57,35.67,12.38,11.16,40.03,39.13,32.01,63.92-.94,2.92-2.85,5.43-5.38,7.17-7.93,5.45-27.16,19.93-19.05,26.95.74.64,1.5,1.24,2.23,1.89,4.16,3.71,17.93,14.78,31.15,11.53,0,0,16.85-6.74,21-13.22l1.11-.55c1.33,18.81,3.75,34.57,8.08,38.62,9.9,9.25,31.95,3.78,40.54,1.16,2.64-.81,4.87-2.61,6.19-5.04,3.77-6.93,10.62-25.13,14.52-69.39h0c-1.2,19.22,6.15,46.96,8.86,56.44.81,2.83,2.23,5.46,4.22,7.63,12.31,13.44,33.71,9.46,44.17,6.41,3.99-1.16,7.21-4.1,8.74-7.97,8.31-21.01,9.88-61.08,9.88-61.08,0,0,13.71,44.81,52.37,41.02,38.66-3.78,29.47-28.92,14.6-32.98Z"/>
        <path class="cls-2" d="M328.39,326.78c-4.05-6.84-8.5-11.65-11.29-14.4-4.94-3.72-12.48-8.51-22.55-11.85-7.56-2.52-12.7-5.8-17.94-6.15l-200.27-4.95c.3.31.6.61.9.91-2.72,1.58-52.01,30.87-58.84,75.03,0,0-5.95,28.92,5.14,39.47,3.54-3.76,7.08-7.57,10.63-11.42,10.23-11.11,20.11-22.18,29.65-33.18-1.44,14.87-2.88,29.74-4.33,44.6,5.28.63,12.66.74,20.85-1.7,22.78-6.77,32.89-27.6,34.83-31.82-2.08,6.64-4.14,13.41-6.15,20.31-2.74,9.4-5.3,18.64-7.68,27.72,18.79.43,28.87-5.07,34.65-10.45,0,0,6.26-5.84,18.63-40.52.13-.72.04-1.25-.06-1.59-.15-.53-.33-.62-.5-1.25-.13-.46-.26-.93-.12-1.47.17-.63.68-1.24.68-1.24,0,0,1.25-1.13,1.37-1.19,4.06-2.08,10.37-.65,14.7.79,1.56.52,3.14,1.01,4.72,1.49-.96,4.8-3.12,19.06,4.64,33.61,12.17,22.83,37.79,25.8,40.1,26.03,2.11-15.7,4.22-31.4,6.33-47.11,0-.57,0-1.14,0-1.71.08-.54.29-1.38.95-2.02,0,0,.79-.76,2.18-.88,2.94-.27,10.57,7.21,12.77,9.09,8.49,7.25,18.15,1.27,29.07,4.49,7.16,2.11,16.16,8.56,23.7,27.93,3.39-2.62,10.23-8.75,12.25-18.4,3.07-14.64-6.19-31.47-23.55-40.38,0,0,48.93,21.63,53.52,27.3.27.33.53.49.79.48,2.82-.05,4.6-31.3-9.77-55.56Z"/>
        <path class="cls-9" d="M171.83,325.72c-.61,1.87,5.65,12.7,10.88,18.88,8.04,9.5,24.98,10.74,26.51,10.84,1.41-6.61,2.82-13.22,4.23-19.83"/>
        <path class="cls-9" d="M280.77,315.16c-2.68-2.85-5.62-4.85-7.47-5.99-3.27-1.55-8.25-3.54-14.91-4.93-4.74-.99-9.01-1.41-12.4-1.57l.54-.99-132.38-2.06c.19.12.37.24.56.36-2.39.21-42.84,3.95-47.35,22.3,0,0-3.93,12.04,3.39,16.43,2.34-1.57,4.68-3.15,7.02-4.75,6.76-4.63,21.78-.28,28.09-4.86l-2.86,18.57c3.49.26,8.37.31,13.78-.71,15.06-2.82,21.74-11.49,23.03-13.25-1.38,2.76-2.73,5.58-4.07,8.45-1.81,3.91-3.5,7.76-5.08,11.54,12.42.18,19.08-2.11,22.9-4.35,0,0,4.14-2.43,12.32-16.87.04-.02.15-.1.18-.21.04-.19,2.62-6.98,3.11-7.1l10.4,5.63c3.79.79,4.59.66,8.48,1.24,8.46,1.27,16.92,2.54,25.38,3.81-.19-.33-.2-.6-.03-.81.79-.99,5.47-.74,14.02.72l-.05.09c3.71.36,9.61,1.26,15.75,3.73,9.67,3.89,14.05,9.3,15.67,11.63,2.24-1.09,6.76-3.64,8.1-7.66,2.03-6.09-4.09-13.1-15.57-16.81,0,0,36.51,2.37,39.55,4.74.18.14.35.2.52.2,1.86-.02-1.13-6.4-10.63-16.5Z"/>
        <path class="cls-11" d="M579.42,334.15c-2.61-2.79-7.23-3.47-14.71-3.98-14.06-.95-22.24,4.61-54.72,20.38l.19.6c-14.95,9.92-60.72,42.39-.89,30.66,0,0-35.41,20.82-31.63,28.11,0,0,22.17-.81,27.3-2.7.1-.04.16-.06.24-.09-2.93,1.19-19.11,8.42-13.75,17.12,0,0,12.56-.43,20.42-3.6-5.3,2.83-16.52,10.3-12.31,21.17,0,0,27.03-11.89,34.33-18.11,0,0-12.16,14.6-10,18.11,2.16,3.51,16.27-11.31,16.27-11.31h0c27.81-27.85,39.29-65.59,41.58-76.01,1.02-4.62,3.04-14.63-2.32-20.35Z"/>
        <path class="cls-10" d="M227.17,211.18c-5.97-13.54-22.2-4.13-23.56-30.57.6-6.05,5.93-23.17,11.9-33.2,2.86-4.8,3.7-6.05,6.91-9.99l.58-.67c.63-.73,1.77-.67,2.31.11,3.56,5.1,14.23,13.94,21.56,34.15,4.05,11.17-11.76,25.52-11.76,25.52"/>
        <path class="cls-11" d="M225.87,140.07c-1.01-1.12-2.8-.96-3.62.29-3.1,4.73-5.77,9.16-8.04,13.31-19.04,34.8-11.93,44.92-6.38,52.25,1.71,2.26,4.81,5.39,10.64,7.69,1.32.41,3.09.86,5.22,1.08,3.51.37,6.2-.06,7.06-.19,3.2-.49,5.69-1.62,7.34-2.48,0,0,0,0,0,0,2.15-1.39,4.01-3.2,5.37-5.37,16.25-26.11-9.91-58.12-17.58-66.59Z"/>
        <path class="cls-10" d="M153.4,203.76c.27-13.81,11.25-14.21,5.44-34.49-.75-2.61-1.8-5.13-3.03-7.55-4.48-8.91-8.46-15.19-16.4-21.09-4.48-3.33-6.37-4.36-10.06-5.93l-.79-.4c-.86-.43-2.41.58-2.92,1.39-2.49,4.01-7.91,17.62-8.69,34.5-2.49,33.62,15.6,33.41,20.04,38.5"/>
        <path class="cls-11" d="M160.54,183.43s.41-11.62-6.64-23.23c-3.84-6.33-4.79-7.72-8.89-12.1-4.69-5.01-7.07-6.75-14.39-11.05-1.49-.88-3.11-.69-3.71-.1-6.04,5.9-9.02,40.45-9.02,40.45-.12,22.96,3.5,27.65,5.72,29.86,3.81,3.79,8.53,5.29,11.94,5.94,1.56.3,6.24.88,11.47-1.37,1.66-.71,7.41-3.18,9.81-8.79,3.05-7.13,3.71-12.47,3.71-19.61Z"/>
        <path class="cls-13" d="M84.05,231.99c33.61,25.69,83.99,67.07,133.69,52.55,30.07-8.79,79.61-49.92,79.61-49.92,6.7-3.68,11.06-9.21,10.49-14.27-1-8.8-16.61-11.91-17.45-12.07-20.75-3.92-40.9,14.74-52.39,25.38-20.13,18.65-16.07,24.59-29.69,32.41-19.47,11.17-48.27,10.79-63.97-3.34-8.04-7.24-3.95-10.84-14.99-25.29-5.02-6.58-18.12-23.73-38.18-26.7-9.55-1.41-21.99.2-23.31,5.04-1.32,4.83,9.25,10.9,16.18,16.2Z"/>
        <g>
          <path class="cls-2" d="M2.42,252.45c-1.51-.09-2.42-.17-2.42-.17,0,0,.9.15,2.42.17Z"/>
          <path class="cls-2" d="M344.4,238.76l14.6,4.33c-11.08-18.11-56.77-23.79-56.77-23.79l7.3-2.16c-48.18-12.15-71.98,19.07-79.89,32.81-2.91,5.06-7.11,9.29-12.18,12.18-3.48,1.98-7.4,3.83-11.77,5.37-28.31,9.98-54.22-.71-62.04-4.3l-.42-.18c-2.72-1.19-4.96-3.26-6.35-5.88l-.05-.09c-4.2-7.91-12.5-23.55-27.29-32.95-15.73-10-32.94-9.19-40.59-8.3,0,0-25.41,2.16-38.39,20.82-10.06,14.45-22.87,15.92-28.12,15.85,5.4.31,18.53.66,25.69-2.6-5.02,2.53-25.89,13.39-25.41,18.38,0,0,25.14-14.06,47.85,0,0,0,14.17,7.73,19.88,13.32,4.29,4.19,8.87,8.07,13.92,11.3,19.1,12.22,54.93,30.09,101.81,28.54,38.45-1.27,67.67-15.04,83.96-24.67,4.6-2.72,9.56-4.8,14.72-6.18,48.54-12.97,83.07-35.82,83.07-35.82-7.84-5.32-15.68-10.63-23.52-15.95Z"/>
        </g>
        <path class="cls-17" d="M225.19,285.69s-23.29,7.58-44.08-9.24"/>
        <path class="cls-6" d="M156.36,273.66s-36.86-9.58,0-12.32,45.68,1.98,45.68,1.98c0,0,24.83,5.78-8.43,10.44-10.38,1.66-17.5,4.49-37.25-.1Z"/>
        <path class="cls-17" d="M174.69,276.15s-14.18,21.75-40.5,5.53"/>
        <path class="cls-9" d="M149.53,295.28s18.65,4.57,30.74,4.42c10.34-.12,27.65-4.42,27.65-4.42.95,0-11.67,6.95-11.67,6.95,7.14.76,8.56,1.27,8.43,1.59-.22.59-5.45.61-6.29,1.42,0,0,6.04,1.36,5.52,2.03-1.19,1.54-7.53.58-8.85,1.31-1.14.63,6.42,1.42,5.72,2.69-.55.99-9.73,1.62-11.67,1.86-6.53.82-13,.32-15.9.09-1.95-.15-9.87-1.1-12.28-2.27-1.63-.79,4.91-1.76,4.49-2.38-.48-.71-7.47-.6-7.98-1.34-.63-.9,5.72-1.86,5.72-1.86,0,0-7.31-.25-6.91-1.07.35-.72,7.87-2.14,7.87-2.14-.01,0-.02,0-.04,0-.71.09-5.55-2.21-14.55-6.89Z"/>
        <g>
          <path class="cls-15" d="M217.21,176.45c.3-.44,1.33-1.53,2.23-2.25.2-.16.5-.39.92-.51.59-.17,1.08-.03,1.34.04.59.17.98.5,1.26.73.2.19.58.58,1,1.12,5.07,6.55,4.17,20.45-.55,22.87-1.85.95-3.83-.1-4.26-.36-6.3-3.63-3.55-19.31-1.94-21.65Z"/>
          <path class="cls-15" d="M149.07,176.45c-.3-.44-1.33-1.53-2.23-2.25-.2-.16-.5-.39-.92-.51-.59-.17-1.08-.03-1.34.04-.59.17-.98.5-1.26.73-.2.19-.58.58-1,1.12-5.07,6.55-4.17,20.45.55,22.87,1.85.95,3.83-.1,4.26-.36,6.3-3.63,3.55-19.31,1.94-21.65Z"/>
        </g>
        <path class="cls-1" d="M144.46,183.95c-1.85-.38-2.94-2.27-2.7-4.14s1.31-3.25,2.57-3.57c1.22-.31,2.62.38,3.33,1.37,1.48,2.06.23,5.81-2.06,6.33-.39.09-.77.08-1.13,0Z"/>
        <path class="cls-8" d="M221.82,184.16c-1.76.57-3.61-.5-4.31-2.21s-.46-3.4.46-4.29c.89-.86,2.42-.95,3.5-.45,2.26,1.04,3.02,4.83,1.32,6.4-.29.27-.62.44-.96.55Z"/>
        <path class="cls-5" d="M297.17,515.26h0M297.38,511.25c-.08,0-.16,0-.24,0-1.37.05-1.73.52-1.83.69-.39.64.04,1.56.2,1.89,1.27,2.7,7.01,5.29,9.93,5.29.72,0,1.27-.16,1.53-.51.39-.51.09-1.31-.17-1.98-1.38-3.64-6.54-5.39-9.42-5.39h0Z"/>
        <path class="cls-5" d="M81.17,520.09c-3.19,0-6.64,2.84-7.86,4.74-.63.99-.47,1.43-.4,1.57.27.53,1.14.59,1.46.62.07,0,.15,0,.22,0,3.25,0,9.4-4.57,8.81-6.2-.18-.48-.89-.58-1.5-.67-.24-.03-.48-.05-.72-.05h0Z"/>
        <path class="cls-5" d="M60.07,508.85c-3.19,0-6.64,2.84-7.86,4.74-.63.99-.47,1.43-.4,1.57.27.53,1.14.59,1.46.62.07,0,.15,0,.22,0,3.25,0,9.4-4.57,8.81-6.2-.18-.48-.89-.59-1.5-.67-.24-.03-.48-.05-.72-.05h0Z"/>
        <path class="cls-5" d="M229.72,545.94c-.07,0-.13,0-.2,0-1.24.02-2.13,0-2.43.06-1.14.21-1.92.62-2.2.78-3.17,1.89-.51,3.35,2.46,3.35.46,0,.92-.03,1.38-.11.98-.16,1.71-.51,2.34-.81,3.4-1.63,2.4-3.28-1.35-3.28h0Z"/>
        <path class="cls-5" d="M217.06,547.59h0M214.25,547.96s-.05,0-.07,0c-1.16.07-1.98.38-2.28.51-3.78,1.66-.25,3.69,3.1,3.69.1,0,.21,0,.31,0,.99-.04,1.76-.3,2.42-.52,3.64-1.22,2.75-3.02-1.13-3.44-1.15-.12-1.99-.24-2.34-.24h0Z"/>
        <path class="cls-5" d="M149.28,550.05h0M144.58,555.65h0s0,0,0,0M149.18,550.83c-.27,0-.55,0-.84.02-1.44.08-2.46.11-2.81.18-1.32.27-2.23.73-2.55.91-3.51,2-.87,3.36,2.36,3.36.68,0,1.38-.06,2.07-.19,1.13-.21,1.98-.61,2.71-.95,3.75-1.75,2.89-3.33-.93-3.33h0Z"/>
        <path class="cls-5" d="M196.58,546.2c-.32,0-.57.02-.71.03-5,.49-.96,3.51,3.1,4.34.83.17,1.56.21,2.21.21.27,0,.52,0,.76-.01,4.57-.11,3.97-2.01-.49-3.48-1.42-.47-2.42-.82-2.78-.89-.85-.16-1.57-.2-2.09-.2h0Z"/>
        <path class="cls-5" d="M115.91,551.59c-.26,0-.46.01-.59.02-5.01.42-1.01,3.5,3.04,4.38.94.21,1.75.24,2.47.24.17,0,.34,0,.5,0,4.57-.05,4-1.96-.44-3.49-1.41-.49-2.41-.85-2.77-.93-.92-.18-1.69-.23-2.21-.23h0Z"/>
        <path class="cls-5" d="M131.91,552.16c-.17,0-.3,0-.39.02-1.39.19-2.36.63-2.7.81-4.14,2.19-.49,4.22,3.31,4.22.38,0,.75-.02,1.12-.06,1.19-.13,2.09-.51,2.87-.84,4.27-1.8,3.05-3.89-1.67-4.05-1.14-.04-2.02-.09-2.54-.09h0Z"/>
        <path class="cls-5" d="M307.97,505.81c-1.22,0-1.52.39-1.61.54-.34.57.12,1.43.29,1.75,1.41,2.62,7.4,5.38,10.12,5.38.57,0,1-.12,1.21-.39.35-.45.02-1.19-.27-1.83-1.57-3.5-6.9-5.39-9.62-5.44-.04,0-.08,0-.12,0h0Z"/>
        <path class="cls-5" d="M318.64,501.02c-.57,0-1.1.06-1.54.16-1.07.25-1.32.7-1.4.86-.28.61.1,1.32.24,1.58.98,1.82,4.59,3.07,7.02,3.07,1.05,0,1.87-.23,2.17-.75.28-.49,0-1.12-.22-1.66-1.03-2.36-3.99-3.26-6.27-3.26h0Z"/>
        <path class="cls-5" d="M68.64,514.45c-2.96,0-5.47,3.09-6.13,5.11-.34,1.05-.08,1.5.01,1.64.38.55,1.18.59,1.48.61.04,0,.09,0,.14,0,2.96,0,7.55-4.96,6.6-6.66-.28-.5-.96-.59-1.53-.67-.19-.03-.38-.04-.56-.04h0Z"/>
        <path class="cls-14" d="M102.23,450.5s-.08,9.42-.11,13.8c-.15,27.86,1.44,50.06,1.44,50.06,0,0-1.11.55-2.69,2.36-.56.64-1.37,1.38-3.03,2.7-1.07.84-1.85-.17-2.02-.29-.88-.65-.25-2.37,1.95-4.18.59-.39,1.59-1.12,2.43-2.17,3.07-3.84,1.14-8.31.73-9.37-4.16-10.76,1.38-52.9,1.29-52.9Z"/>
        <path class="cls-14" d="M249.16,481.93s2.98-.29.96-32.37c.08,1.2-.1,11.13-.75,13.76-.16.66-.74,2.88-1.18,6.02-.28,2.03-.49,3.56-.42,5.52.05,1.49.29,4.02,1.38,7.07Z"/>
      </g>
    </g>
  </g>
</svg>