<?xml version="1.0" encoding="UTF-8"?>
<svg xmlns="http://www.w3.org/2000/svg" xmlns:xlink="http://www.w3.org/1999/xlink" viewBox="0 0 375 340">
  <defs>
    <style>
      .cls-1 {
        fill: url(#_名称未設定グラデーション_110);
      }

      .cls-1, .cls-2, .cls-3, .cls-4, .cls-5, .cls-6, .cls-7, .cls-8, .cls-9, .cls-10, .cls-11 {
        stroke-width: 0px;
      }

      .cls-2 {
        fill: #ffed9f;
      }

      .cls-3, .cls-10 {
        fill: #f7d283;
      }

      .cls-3, .cls-11 {
        mix-blend-mode: multiply;
      }

      .cls-12 {
        isolation: isolate;
      }

      .cls-4 {
        fill: url(#_名称未設定グラデーション_73);
      }

      .cls-5 {
        fill: url(#_名称未設定グラデーション_114);
      }

      .cls-6, .cls-13 {
        fill: none;
      }

      .cls-14 {
        clip-path: url(#clippath);
      }

      .cls-13 {
        stroke: #000;
        stroke-linecap: round;
        stroke-linejoin: round;
        stroke-width: 2px;
      }

      .cls-7 {
        fill: #bf8564;
      }

      .cls-8 {
        fill: #fff;
      }

      .cls-9 {
        fill: #ff9024;
      }

      .cls-10 {
        mix-blend-mode: color-burn;
      }

      .cls-11 {
        fill: #289caf;
      }
    </style>
    <clipPath id="clippath">
      <rect class="cls-6" width="375" height="340"/>
    </clipPath>
    <radialGradient id="_名称未設定グラデーション_73" data-name="名称未設定グラデーション 73" cx="185.12" cy="331.34" fx="176.14" fy="316.14" r="33.84" gradientTransform="translate(.75 245.43) rotate(.5) scale(1 .25)" gradientUnits="userSpaceOnUse">
      <stop offset=".18" stop-color="#9d9d9d"/>
      <stop offset=".32" stop-color="#6e6e6e"/>
      <stop offset=".51" stop-color="#323232"/>
      <stop offset=".66" stop-color="#0e0e0e"/>
      <stop offset=".73" stop-color="#000"/>
    </radialGradient>
    <radialGradient id="_名称未設定グラデーション_110" data-name="名称未設定グラデーション 110" cx="150.18" cy="243.19" fx="150.18" fy="243.19" r="4.61" gradientUnits="userSpaceOnUse">
      <stop offset=".36" stop-color="#fff"/>
      <stop offset=".38" stop-color="#ecf7ef"/>
      <stop offset=".41" stop-color="#ccebd5"/>
      <stop offset=".45" stop-color="#b1e0bf"/>
      <stop offset=".49" stop-color="#9bd7ad"/>
      <stop offset=".54" stop-color="#8ad19f"/>
      <stop offset=".6" stop-color="#7ecc96"/>
      <stop offset=".69" stop-color="#77c990"/>
      <stop offset=".93" stop-color="#76c98f"/>
    </radialGradient>
    <radialGradient id="_名称未設定グラデーション_114" data-name="名称未設定グラデーション 114" cx="225.53" cy="243.43" fx="225.53" fy="243.43" r="3.77" gradientUnits="userSpaceOnUse">
      <stop offset=".47" stop-color="#fff"/>
      <stop offset=".49" stop-color="#ecf7ef"/>
      <stop offset=".52" stop-color="#ccebd5"/>
      <stop offset=".56" stop-color="#b1e0bf"/>
      <stop offset=".6" stop-color="#9bd7ad"/>
      <stop offset=".64" stop-color="#8ad19f"/>
      <stop offset=".7" stop-color="#7ecc96"/>
      <stop offset=".78" stop-color="#77c990"/>
      <stop offset="1" stop-color="#76c98f"/>
    </radialGradient>
  </defs>
  <g class="cls-12">
    <g id="_レイヤー_2" data-name="レイヤー 2">
      <g id="_レイヤー_3" data-name="レイヤー 3">
        <g class="cls-14">
          <path class="cls-9" d="M105.03,65.73c-.47-.64-1.73-2.41-3.41-2.4-2.07,0-3.61,2.7-4.16,3.66-3.77,6.56-8.55,12.54-11.87,19.34-6.53,13.35-6.68,12.04-11.33,22.28-2.85,6.27-5.06,11.75-6.05,14.38-12.9,34.05-6.52,64.31-6.52,64.31,1.59,7.56,5.01,19.29,13.18,32.39l70.52-68.5c9.97-38.62-32.79-75.11-40.35-85.46Z"/>
          <path class="cls-9" d="M509.97,419.75c-4.37,2.12-9.17,4.42-14.49,6.92-44.87,21.09-74.34-5.41-74.34-5.41-82.99-95.97-96.24-80.93-96.24-80.93-130.93,42.46-223.51,99.48-217.68,143.49,4.98,37.56,83.18,38.77,150.06,48.7,27.31,4.05,50.65,25.9,69.6,26.72,14.45.63,143.51,5.76,210.23-56.61"/>
          <path class="cls-9" d="M278.81,74.05c-1.77-3.03-4.9-3.95-6.05-2.52-12.8,15.82-25.73,36.15-31.83,47.96-2.15,2.89-4.78,9.15-7.05,15.2-3.76,9.19-5.03,14.63-5.03,14.63l69.29,43.27c20.64-54.32-11.43-104.99-19.34-118.55Z"/>
          <path class="cls-3" d="M241.69,151.57s43,15.84,49.43,22.28c8.16,8.16,7.12,19.41,7.12,19.41l-56.55-41.69Z"/>
          <path class="cls-3" d="M74.86,219.69s-1.02-19.49,9.16-30.67c8.25-9.05,41.04-30.67,41.04-30.67"/>
          <g>
            <path class="cls-8" d="M236.98,155.57s-12.05,10.52,18.61-40.06c1.47-2.42,10.9-5.8,14.13-4.37,2.98,1.32,1.46,6.75-1.64,22.38-4.21,21.21-4.34,25.92-9.45,28.04-2.01.83-10.34-.57-21.65-5.99Z"/>
            <path class="cls-8" d="M129.17,162.91c.69.63,3.08-1.51,3.89-1.68,3.6-.75,4.09-18-3.91-31.63-2.47-4.2-7.82-11.6-19.14-18.05-.13-.31-.5-.5-.87-.45,0,0,0,0,0,0-2.91.21-3.99,9.58-4.07,14.92-.04,2.25.08,5.39.75,9.17,1.48,9.56,4.07,23.28,5.55,32.85l17.8-5.12Z"/>
          </g>
          <path class="cls-9" d="M74.33,281.26c17.2,52.46,66.76,87.91,121.89,87.23,55.34-.68,104.14-37.62,119.87-90.75,2.1-14.33,2.94-35.03-4.09-57.96-1.4-4.58-3.08-10.04-6.34-16.45,0,0,0,0,0,0,0,0-26.98-53.96-96.68-57.82-4.71-.26-10.11-.36-10.11-.36s-9.26-.16-17.56.23c-36.47,1.71-58.87,14.03-58.87,14.03-25.23,13.88-37.63,37.67-43.04,50.85-.91,2.22-1.91,4.39-2.97,6.55-4.08,8.34-9.4,22.69-8.21,40.55.35,5.25,1.35,13.08,4.87,22.28"/>
          <path class="cls-7" d="M232.17,274.51c-5.97-13.54-22.2-4.13-23.56-30.57.6-6.05,5.93-23.17,11.9-33.2,2.86-4.8,3.7-6.05,6.91-9.99l.58-.67c.63-.73,1.77-.67,2.31.11,3.56,5.1,14.23,13.94,21.56,34.15,4.05,11.17-11.76,25.52-11.76,25.52"/>
          <path class="cls-8" d="M230.87,203.39c-1.01-1.12-2.8-.96-3.62.29-3.1,4.73-5.77,9.16-8.04,13.31-19.04,34.8-11.93,44.92-6.38,52.25,1.71,2.26,4.81,5.39,10.64,7.69,1.32.41,3.09.86,5.22,1.08,3.51.37,6.2-.06,7.06-.19,3.2-.49,5.69-1.62,7.34-2.48,0,0,0,0,0,0,2.15-1.39,4.01-3.2,5.37-5.37,16.25-26.11-9.91-58.12-17.58-66.59Z"/>
          <path class="cls-7" d="M158.4,267.09c.27-13.81,11.25-14.21,5.44-34.49-.75-2.61-1.8-5.13-3.03-7.55-4.48-8.91-8.46-15.19-16.4-21.09-4.48-3.33-6.37-4.36-10.06-5.93l-.79-.4c-.86-.43-2.41.58-2.92,1.39-2.49,4.01-7.91,17.62-8.69,34.5-2.49,33.62,15.6,33.41,20.04,38.5"/>
          <path class="cls-8" d="M165.54,246.75s.41-11.62-6.64-23.23c-3.84-6.33-4.79-7.72-8.89-12.1-4.69-5.01-7.07-6.75-14.39-11.05-1.49-.88-3.11-.69-3.71-.1-6.04,5.9-9.02,40.45-9.02,40.45-.12,22.96,3.5,27.65,5.72,29.86,3.81,3.79,8.53,5.29,11.94,5.94,1.56.3,6.24.88,11.47-1.37,1.66-.71,7.41-3.18,9.81-8.79,3.05-7.13,3.71-12.47,3.71-19.61Z"/>
          <path class="cls-10" d="M89.05,295.31c33.61,25.69,83.99,67.07,133.69,52.55,30.07-8.79,79.61-49.92,79.61-49.92,6.7-3.68,11.06-9.21,10.49-14.27-1-8.8-16.61-11.91-17.45-12.07-20.75-3.92-40.9,14.74-52.39,25.38-20.13,18.65-16.07,24.59-29.69,32.41-19.47,11.17-48.27,10.79-63.97-3.34-8.04-7.24-3.95-10.84-14.99-25.29-5.02-6.58-18.12-23.73-38.18-26.7-9.55-1.41-21.99.2-23.31,5.04-1.32,4.83,9.25,10.9,16.18,16.2Z"/>
          <g>
            <path class="cls-2" d="M7.42,315.77c-1.51-.09-2.42-.17-2.42-.17,0,0,.9.15,2.42.17Z"/>
            <path class="cls-2" d="M349.4,302.09l14.6,4.33c-11.08-18.11-56.77-23.79-56.77-23.79l7.3-2.16c-48.18-12.15-71.98,19.07-79.89,32.81-2.91,5.06-7.11,9.29-12.18,12.18-3.48,1.98-7.4,3.83-11.77,5.37-28.31,9.98-54.22-.71-62.04-4.3l-.42-.18c-2.72-1.19-4.96-3.26-6.35-5.88l-.05-.09c-4.2-7.91-12.5-23.55-27.29-32.95-15.73-10-32.94-9.19-40.59-8.3,0,0-25.41,2.16-38.39,20.82-10.06,14.45-22.87,15.92-28.12,15.85,5.4.31,18.53.66,25.69-2.6-5.02,2.53-25.89,13.39-25.41,18.38,0,0,25.14-14.06,47.85,0,0,0,14.17,7.73,19.88,13.32,4.29,4.19,8.87,8.07,13.92,11.3,19.1,12.22,54.93,30.09,101.81,28.54,38.45-1.27,67.67-15.04,83.96-24.67,4.6-2.72,9.56-4.8,14.72-6.18,48.54-12.97,83.07-35.82,83.07-35.82-7.84-5.32-15.68-10.63-23.52-15.95Z"/>
          </g>
          <path class="cls-13" d="M230.19,349.01s-23.29,7.58-44.08-9.24"/>
          <path class="cls-4" d="M161.36,336.98s-36.86-9.58,0-12.32,45.68,1.98,45.68,1.98c0,0,24.83,5.78-8.43,10.44-10.38,1.66-17.5,4.49-37.25-.1Z"/>
          <path class="cls-13" d="M179.69,339.48s-14.18,21.75-40.5,5.53"/>
          <g>
            <path class="cls-11" d="M222.21,239.77c.3-.44,1.33-1.53,2.23-2.25.2-.16.5-.39.92-.51.59-.17,1.08-.03,1.34.04.59.17.98.5,1.26.73.2.19.58.58,1,1.12,5.07,6.55,4.17,20.45-.55,22.87-1.85.95-3.83-.1-4.26-.36-6.3-3.63-3.55-19.31-1.94-21.65Z"/>
            <path class="cls-11" d="M154.07,239.77c-.3-.44-1.33-1.53-2.23-2.25-.2-.16-.5-.39-.92-.51-.59-.17-1.08-.03-1.34.04-.59.17-.98.5-1.26.73-.2.19-.58.58-1,1.12-5.07,6.55-4.17,20.45.55,22.87,1.85.95,3.83-.1,4.26-.36,6.3-3.63,3.55-19.31,1.94-21.65Z"/>
          </g>
          <path class="cls-1" d="M149.46,247.28c-1.85-.38-2.94-2.27-2.7-4.14s1.31-3.25,2.57-3.57c1.22-.31,2.62.38,3.33,1.37,1.48,2.06.23,5.81-2.06,6.33-.39.09-.77.08-1.13,0Z"/>
          <path class="cls-5" d="M226.82,247.48c-1.76.57-3.61-.5-4.31-2.21s-.46-3.4.46-4.29c.89-.86,2.42-.95,3.5-.45,2.26,1.04,3.02,4.83,1.32,6.4-.29.27-.62.44-.96.55Z"/>
        </g>
      </g>
    </g>
  </g>
</svg>